<svg class="w-6 h-6" width="24" height="24" viewBox="0 0 24 24" fill="none" xmlns="http://www.w3.org/2000/svg"><path d="M20 4.61691L16.3418 6.44699L16.3408 6.44797C15.9245 6.65594 15.4654 6.76437 15 6.76437C14.5346 6.76437 14.0755 6.65594 13.6592 6.44797V6.44699L9.44727 4.34152C9.3433 4.28957 9.23107 4.25633 9.11622 4.24289L9.00001 4.23605C8.84491 4.23605 8.69149 4.27124 8.55274 4.34055L8.55372 4.34152L4.00001 6.61789V19.3835L7.65919 17.5534L7.81739 17.4802C8.19052 17.3201 8.59278 17.237 9.00001 17.237C9.46544 17.237 9.92447 17.3454 10.3408 17.5534L14.5527 19.6599L14.6592 19.7048C14.7682 19.7443 14.8835 19.7654 15 19.7654C15.1549 19.7654 15.3077 19.729 15.4463 19.6599L20 17.3825V4.61691ZM22 17.3835C21.9998 17.7547 21.8964 18.1186 21.7012 18.4343C21.5058 18.7501 21.2257 19.0046 20.8936 19.1706L20.8945 19.1716L16.3408 21.448V21.4489C15.9245 21.6569 15.4654 21.7654 15 21.7654C14.5346 21.7653 14.0755 21.6569 13.6592 21.4489V21.448L9.44727 19.3425C9.30847 19.2731 9.15517 19.237 9.00001 19.237C8.84491 19.237 8.69149 19.2722 8.55274 19.3415L8.55372 19.3425L4.89454 21.1726H4.89356C4.58837 21.325 4.249 21.3972 3.90821 21.3816C3.56746 21.3659 3.23624 21.2634 2.94629 21.0837C2.65621 20.9039 2.41661 20.6526 2.25098 20.3542C2.08538 20.0558 1.99918 19.7199 2.00001 19.3786V6.61789L2.00489 6.47824C2.02757 6.15564 2.12798 5.84234 2.29883 5.56613C2.49406 5.25055 2.77359 4.99578 3.10547 4.8298L7.65919 2.55246L7.81739 2.47922C8.19052 2.31915 8.59278 2.23605 9.00001 2.23605L9.17383 2.24094C9.57932 2.26447 9.9764 2.37038 10.3408 2.55246L14.5527 4.65891L14.6592 4.70383C14.7682 4.74336 14.8835 4.76437 15 4.76437C15.1549 4.76437 15.3077 4.72802 15.4463 4.65891L19.1055 2.82883H19.1065L19.2217 2.77512C19.4957 2.65936 19.7926 2.60629 20.0908 2.61984C20.4315 2.63536 20.7628 2.73725 21.0527 2.91672C21.3427 3.09625 21.5823 3.34721 21.7481 3.64523C21.9136 3.94291 22.0002 4.27829 22 4.61887V17.3835Z" fill="#686583" style="fill-opacity:1;"/><path d="M14 20.764V5.76401C14 5.21172 14.4477 4.76401 15 4.76401C15.5523 4.76401 16 5.21172 16 5.76401V20.764C16 21.3163 15.5523 21.764 15 21.764C14.4477 21.764 14 21.3163 14 20.764Z" fill="#686583" style="fill-opacity:1;"/><path d="M8 18.236V3.23599C8 2.68371 8.44772 2.23599 9 2.23599C9.55228 2.23599 10 2.68371 10 3.23599V18.236C10 18.7883 9.55228 19.236 9 19.236C8.44772 19.236 8 18.7883 8 18.236Z" fill="#686583" style="fill-opacity:1;"/></svg>