<svg class="w-6 h-6" width="24" height="24" viewBox="0 0 24 24" fill="currentColor" xmlns="http://www.w3.org/2000/svg"><path d="M20 9V4H15C14.4477 4 14 3.55228 14 3C14 2.44772 14.4477 2 15 2H21L21.1025 2.00488C21.6067 2.05621 22 2.48232 22 3V9C22 9.55228 21.5523 10 21 10C20.4477 10 20 9.55228 20 9Z" fill="currentColor" style="fill-opacity:1;"/><path d="M20.293 2.29302C20.6835 1.90249 21.3165 1.90249 21.707 2.29302C22.0976 2.68354 22.0976 3.31655 21.707 3.70708L10.707 14.7071C10.3165 15.0976 9.68349 15.0976 9.29297 14.7071C8.90245 14.3166 8.90245 13.6835 9.29297 13.293L20.293 2.29302Z" fill="currentColor" style="fill-opacity:1;"/><path d="M2 19V8C2 7.20435 2.3163 6.44152 2.87891 5.87891C3.44152 5.3163 4.20435 5 5 5H11C11.5523 5 12 5.44772 12 6C12 6.55228 11.5523 7 11 7H5C4.73478 7 4.48051 7.10543 4.29297 7.29297C4.10543 7.48051 4 7.73478 4 8V19C4 19.2652 4.10543 19.5195 4.29297 19.707C4.48051 19.8946 4.73478 20 5 20H16C16.2652 20 16.5195 19.8946 16.707 19.707C16.8946 19.5195 17 19.2652 17 19V13C17 12.4477 17.4477 12 18 12C18.5523 12 19 12.4477 19 13V19C19 19.7957 18.6837 20.5585 18.1211 21.1211C17.5585 21.6837 16.7957 22 16 22H5C4.20435 22 3.44152 21.6837 2.87891 21.1211C2.3163 20.5585 2 19.7956 2 19Z" fill="currentColor" style="fill-opacity:1;"/></svg>